<svg width="14" height="14" viewBox="0 0 14 14" fill="none" xmlns="http://www.w3.org/2000/svg">
<path d="M5.25 12.25V7.93335C5.25 7.60666 5.25 7.44331 5.31358 7.31853C5.36951 7.20877 5.45874 7.11953 5.56851 7.0636C5.69329 7.00002 5.85664 7.00002 6.18333 7.00002H7.81667C8.14336 7.00002 8.30671 7.00002 8.43149 7.0636C8.54126 7.11953 8.63049 7.20877 8.68642 7.31853C8.75 7.44331 8.75 7.60666 8.75 7.93335V12.25M6.42699 1.61236L2.47064 4.68952C2.20618 4.89522 2.07395 4.99806 1.97868 5.12686C1.8943 5.24096 1.83143 5.36949 1.79318 5.50614C1.75 5.66042 1.75 5.82794 1.75 6.16298V10.3834C1.75 11.0367 1.75 11.3634 1.87716 11.613C1.98901 11.8325 2.16749 12.011 2.38701 12.1229C2.63657 12.25 2.96327 12.25 3.61667 12.25H10.3833C11.0367 12.25 11.3634 12.25 11.613 12.1229C11.8325 12.011 12.011 11.8325 12.1228 11.613C12.25 11.3634 12.25 11.0367 12.25 10.3834V6.16298C12.25 5.82794 12.25 5.66042 12.2068 5.50614C12.1686 5.36949 12.1057 5.24096 12.0213 5.12686C11.9261 4.99806 11.7938 4.89522 11.5294 4.68952L7.57301 1.61236C7.36807 1.45297 7.2656 1.37327 7.15245 1.34263C7.05261 1.3156 6.94738 1.3156 6.84755 1.34263C6.7344 1.37327 6.63193 1.45297 6.42699 1.61236Z" stroke="var(--theme-color-g300)" stroke-width="1.16667" stroke-linecap="round" stroke-linejoin="round"/>
</svg>
