<svg xmlns="http://www.w3.org/2000/svg" width="24" height="24" viewBox="-5 -5 31 31" fill="none" stroke="currentColor" stroke-width="2" stroke-linecap="round" stroke-linejoin="round" stroke-miterlimit="10">
  <path d="M3.42,23.03c-1.34,0-2.43-1.09-2.43-2.43V8.44c0-1.34,1.09-2.43,2.43-2.43h13.2c1.34,0,2.43,1.09,2.43,2.43v12.16c0,1.34-1.09,2.43-2.43,2.43z"/>
  <path d="M4.94,5.16c0-0.83,0-1.76,0-1.76c0-1.34,1.09-2.43,2.43-2.43h13.2c1.34,0,2.43,1.09,2.43,2.43v12.16c0,1.34-1.09,2.43-2.43,2.43c0,0,0.33,0-1.5,0"/>
  <path d="M0.99,11.04h18.07"/>
  <path d="M4.94,6h18.07"/>
</svg>