<svg width="24" height="24" viewBox="0 0 24 24" fill="none" xmlns="http://www.w3.org/2000/svg">
<path d="M6.46094 12.6154V5.23077C6.46094 4.90435 6.59061 4.5913 6.82142 4.36048C7.05224 4.12967 7.36529 4 7.69171 4H13.8456L19.9994 10.1538V18.7692C19.9994 19.0956 19.8697 19.4087 19.6389 19.6395C19.4081 19.8703 19.0951 20 18.7686 20H15.0763" stroke="var(--theme-color-g400)" stroke-width="1.5" stroke-linecap="round" stroke-linejoin="round"/>
<path d="M13.8477 4V10.1538H20.0015" stroke="var(--theme-color-g400)" stroke-width="1.5" stroke-linecap="round" stroke-linejoin="round"/>
<path d="M9.85644 12.9007C10.0964 12.4033 10.6889 12.2051 11.1798 12.4581L12.2037 12.9859C12.6946 13.2389 12.8981 13.8473 12.6582 14.3447L9.7294 20.4164L6.92769 18.9724L9.85644 12.9007Z" fill="var(--theme-color-g400)"/>
<path d="M6.7597 23.054C6.7268 23.0808 6.67773 23.0551 6.67908 23.0119L6.79732 19.2218C6.79846 19.1851 6.83646 19.1625 6.86872 19.1793L9.6331 20.624C9.66536 20.6409 9.67026 20.6859 9.64231 20.7087L6.7597 23.054Z" fill="var(--theme-color-g400)"/>
</svg>
