<svg xmlns="http://www.w3.org/2000/svg" xmlns:xlink="http://www.w3.org/1999/xlink" fill="none" version="1.1" width="21" height="21" viewBox="0 0 21 21">
<defs>
<clipPath id="master_svg0_4_1">
<rect x="0" y="0" width="21" height="21" rx="0"/>
</clipPath>
</defs>
<g clip-path="url(#master_svg0_4_1)">
<g>
<path d="M18.66,17L18.66,4Q18.66,3.312406,18.1738,2.826203Q17.6876,2.34,17,2.34L4,2.34Q3.312405,2.34,2.826203,2.826203Q2.34,3.312405,2.34,4L2.34,7L2.34,17Q2.34,17.6876,2.826203,18.1738Q3.312406,18.66,4,18.66L17,18.66Q17.6876,18.66,18.1738,18.1738Q18.66,17.6876,18.66,17ZM17.34,7.66L17.34,17Q17.34,17.34,17,17.34L4,17.34Q3.66,17.34,3.66,17L3.66,7.66L17.34,7.66ZM17.34,6.34L17.34,4Q17.34,3.66,17,3.66L4,3.66Q3.66,3.66,3.66,4L3.66,6.34L17.34,6.34Z" fill-rule="evenodd" fill="var(--theme-color-g400)" fill-opacity="1"/>
</g
></g>
</svg>