<svg xmlns="http://www.w3.org/2000/svg" width="24" height="24" viewBox="0 0 24 24" fill="none">
  <path fill-rule="evenodd" clip-rule="evenodd" d="M12 3.2C14.1242 3.2 15.8462 4.92613 15.8462 7.05542V11.6819L8.92292 4.74201C9.62462 3.80566 10.7418 3.2 12 3.2ZM8.15385 7.87328V12.453C8.15385 14.5823 9.87583 16.3084 12 16.3084C13.2463 16.3084 14.3541 15.7142 15.057 14.793L16.2883 16.0273C15.2645 17.2601 13.7236 18.0434 12 18.0434C8.91995 18.0434 6.42308 15.5405 6.42308 12.453V10.9108C6.42308 10.5914 6.16478 10.3325 5.84615 10.3325C5.52753 10.3325 5.26923 10.5914 5.26923 10.9108V12.453C5.26923 16.1793 8.2827 19.2 12 19.2C14.043 19.2 15.8733 18.2871 17.107 16.848L18.5151 18.2595C18.7404 18.4854 19.1057 18.4854 19.331 18.2595C19.5563 18.0337 19.5563 17.6675 19.331 17.4417L5.48487 3.56216C5.25957 3.33631 4.89428 3.33631 4.66898 3.56216C4.44367 3.788 4.44367 4.15417 4.66898 4.38001L8.15385 7.87328ZM18.1538 10.3325C18.4725 10.3325 18.7308 10.5914 18.7308 10.9108V12.453C18.7308 12.9734 18.6719 13.4807 18.5602 13.9683C18.4889 14.2796 18.1794 14.474 17.8688 14.4025C17.5583 14.3311 17.3643 14.0208 17.4356 13.7095C17.528 13.3062 17.5769 12.8857 17.5769 12.453V10.9108C17.5769 10.5914 17.8352 10.3325 18.1538 10.3325Z" fill="#FA594C"/>
  <path d="M12 19.2V20.85" stroke="#FA594C" stroke-width="1.65" stroke-linecap="round"/>
</svg>