<svg width="32" height="32" viewBox="0 0 32 32" fill="none" xmlns="http://www.w3.org/2000/svg">
<path d="M10.0921 7.8208C10.1958 7.39307 10.8042 7.39307 10.9079 7.8208L11.1933 8.99774C11.2303 9.15046 11.3495 9.26969 11.5023 9.30672L12.6792 9.59211C13.1069 9.69583 13.1069 10.3042 12.6792 10.4079L11.5023 10.6933C11.3495 10.7303 11.2303 10.8495 11.1933 11.0023L10.9079 12.1792C10.8042 12.6069 10.1958 12.6069 10.0921 12.1792L9.80672 11.0023C9.76969 10.8495 9.65046 10.7303 9.49774 10.6933L8.3208 10.4079C7.89307 10.3042 7.89307 9.69583 8.3208 9.59211L9.49774 9.30672C9.65046 9.26969 9.76969 9.15046 9.80672 8.99774L10.0921 7.8208Z" fill="#9CA3AF"/>
<path fill-rule="evenodd" clip-rule="evenodd" d="M10.5 8.27591L10.2962 9.11643C10.2147 9.4524 9.9524 9.71472 9.61643 9.79619L8.77591 10L9.61643 10.2038C9.9524 10.2853 10.2147 10.5476 10.2962 10.8836L10.5 11.7241L10.7038 10.8836C10.7853 10.5476 11.0476 10.2853 11.3836 10.2038L12.2241 10L11.3836 9.79619C11.0476 9.71472 10.7853 9.4524 10.7038 9.11643L10.5 8.27591ZM10.9079 7.8208C10.8042 7.39307 10.1958 7.39307 10.0921 7.8208L9.80672 8.99774C9.76969 9.15046 9.65046 9.26969 9.49774 9.30672L8.3208 9.59211C7.89307 9.69583 7.89307 10.3042 8.3208 10.4079L9.49774 10.6933C9.65046 10.7303 9.76969 10.8495 9.80672 11.0023L10.0921 12.1792C10.1958 12.6069 10.8042 12.6069 10.9079 12.1792L11.1933 11.0023C11.2303 10.8495 11.3495 10.7303 11.5023 10.6933L12.6792 10.4079C13.1069 10.3042 13.1069 9.69583 12.6792 9.59211L11.5023 9.30672C11.3495 9.26969 11.2303 9.15046 11.1933 8.99774L10.9079 7.8208Z" fill="#9CA3AF"/>
<path d="M18.3 11.15C18.3 11.509 18.009 11.8 17.65 11.8C17.291 11.8 17 11.509 17 11.15C17 10.791 17.291 10.5 17.65 10.5C18.009 10.5 18.3 10.791 18.3 11.15Z" fill="#9CA3AF"/>
<path d="M8.3 14.15C8.3 14.509 8.00899 14.8 7.65 14.8C7.29101 14.8 7 14.509 7 14.15C7 13.791 7.29101 13.5 7.65 13.5C8.00899 13.5 8.3 13.791 8.3 14.15Z" fill="#9CA3AF"/>
<path d="M14.3 8.15C14.3 8.50899 14.009 8.8 13.65 8.8C13.291 8.8 13 8.50899 13 8.15C13 7.79101 13.291 7.5 13.65 7.5C14.009 7.5 14.3 7.79101 14.3 8.15Z" fill="#9CA3AF"/>
<path d="M18.3096 24.5L16.8405 20.8013H12.0064L10.5544 24.5H9L13.7658 12.5H15.1494L19.8982 24.5H18.3096ZM15.0128 15.8473C14.9786 15.758 14.9217 15.5962 14.842 15.3619C14.7622 15.1276 14.6825 14.8877 14.6028 14.6423C14.5345 14.3856 14.4776 14.1904 14.432 14.0565C14.3751 14.2796 14.3124 14.5084 14.2441 14.7427C14.1872 14.9658 14.1245 15.1722 14.0562 15.3619C13.9993 15.5516 13.948 15.7134 13.9025 15.8473L12.5188 19.4623H16.3793L15.0128 15.8473Z" fill="#9CA3AF"/>
<path d="M25 24.5H20.5929V23.6297L22.0278 23.3117V13.7552L20.5929 13.4205V12.5502H25V13.4205L23.5651 13.7552V23.3117L25 23.6297V24.5Z" fill="#9CA3AF"/>
</svg>
