<svg width="24" height="24" viewBox="0 0 24 24" fill="none" xmlns="http://www.w3.org/2000/svg">
<path d="M18.4571 14.722C18.0115 15.7762 17.3145 16.7052 16.427 17.4276C15.5395 18.1501 14.4886 18.6441 13.3661 18.8665C12.2437 19.0889 11.0838 19.0328 9.98804 18.7032C8.89224 18.3737 7.89384 17.7806 7.08012 16.9759C6.2664 16.1712 5.66214 15.1794 5.32016 14.0872C4.97819 12.9949 4.90891 11.8355 5.11839 10.7103C5.32787 9.58512 5.80972 8.52837 6.52183 7.63247C7.23394 6.73657 8.15461 6.02879 9.20336 5.57102M18.4773 9.31493C18.7578 9.99212 18.9298 10.708 18.9881 11.4364C19.0026 11.6163 19.0098 11.7063 18.9741 11.7873C18.9442 11.855 18.8851 11.9191 18.82 11.9543C18.7421 11.9964 18.6448 11.9964 18.4501 11.9964H12.5658C12.3697 11.9964 12.2716 11.9964 12.1967 11.9582C12.1308 11.9246 12.0772 11.871 12.0436 11.8051C12.0054 11.7301 12.0054 11.632 12.0054 11.4358V5.55C12.0054 5.3553 12.0054 5.25795 12.0475 5.18002C12.0827 5.11492 12.1467 5.05579 12.2144 5.02594C12.2954 4.99021 12.3853 4.99743 12.5652 5.01185C13.2934 5.07025 14.0091 5.24231 14.6862 5.52281C15.5361 5.87494 16.3083 6.39107 16.9588 7.04172C17.6093 7.69237 18.1253 8.46481 18.4773 9.31493Z" stroke="var(--theme-color-g400)" stroke-width="1.3" stroke-linecap="round" stroke-linejoin="round"/>
</svg>
