<svg width="32" height="32" viewBox="0 0 32 32" fill="none" xmlns="http://www.w3.org/2000/svg">
    <path
        d="M11.5556 18.6667L14.2222 16L11.5556 13.3333M16.8889 18.6667H20.4444M12.2667 24H19.7333C21.2268 24 21.9735 24 22.544 23.7094C23.0457 23.4537 23.4537 23.0457 23.7094 22.544C24 21.9735 24 21.2268 24 19.7333V12.2667C24 10.7732 24 10.0265 23.7094 9.45603C23.4537 8.95426 23.0457 8.54631 22.544 8.29065C21.9735 8 21.2268 8 19.7333 8H12.2667C10.7732 8 10.0265 8 9.45603 8.29065C8.95426 8.54631 8.54631 8.95426 8.29065 9.45603C8 10.0265 8 10.7732 8 12.2667V19.7333C8 21.2268 8 21.9735 8.29065 22.544C8.54631 23.0457 8.95426 23.4537 9.45603 23.7094C10.0265 24 10.7732 24 12.2667 24Z"
        stroke="var(--theme-color-g400)" stroke-width="1.3" stroke-linecap="round" stroke-linejoin="round" />
</svg>