<svg width="24" height="24" viewBox="0 0 24 24" fill="none" xmlns="http://www.w3.org/2000/svg">
<path d="M3.6001 4.60059C3.6001 4.0483 4.04781 3.60059 4.6001 3.60059H7.6401C8.19238 3.60059 8.6401 4.0483 8.6401 4.60059V7.64058C8.6401 8.19287 8.19238 8.64059 7.6401 8.64059H4.6001C4.04781 8.64059 3.6001 8.19287 3.6001 7.64059V4.60059Z" fill="white"/>
<path d="M9.48022 4.60059C9.48022 4.0483 9.92794 3.60059 10.4802 3.60059H13.5202C14.0725 3.60059 14.5202 4.0483 14.5202 4.60059V7.64058C14.5202 8.19287 14.0725 8.64059 13.5202 8.64059H10.4802C9.92794 8.64059 9.48022 8.19287 9.48022 7.64059V4.60059Z" fill="white" fill-opacity="0.6"/>
<path d="M15.3601 4.60059C15.3601 4.0483 15.8078 3.60059 16.3601 3.60059H19.4001C19.9524 3.60059 20.4001 4.0483 20.4001 4.60059V7.64058C20.4001 8.19287 19.9524 8.64059 19.4001 8.64059H16.3601C15.8078 8.64059 15.3601 8.19287 15.3601 7.64059V4.60059Z" fill="white" fill-opacity="0.2"/>
<path d="M3.6001 10.4805C3.6001 9.92819 4.04781 9.48047 4.6001 9.48047H7.6401C8.19238 9.48047 8.6401 9.92818 8.6401 10.4805V13.5205C8.6401 14.0728 8.19238 14.5205 7.6401 14.5205H4.6001C4.04781 14.5205 3.6001 14.0728 3.6001 13.5205V10.4805Z" fill="white"/>
<path d="M9.48022 10.4805C9.48022 9.92819 9.92794 9.48047 10.4802 9.48047H13.5202C14.0725 9.48047 14.5202 9.92818 14.5202 10.4805V13.5205C14.5202 14.0728 14.0725 14.5205 13.5202 14.5205H10.4802C9.92794 14.5205 9.48022 14.0728 9.48022 13.5205V10.4805Z" fill="white" fill-opacity="0.6"/>
<path d="M15.3601 10.4805C15.3601 9.92819 15.8078 9.48047 16.3601 9.48047H19.4001C19.9524 9.48047 20.4001 9.92818 20.4001 10.4805V13.5205C20.4001 14.0728 19.9524 14.5205 19.4001 14.5205H16.3601C15.8078 14.5205 15.3601 14.0728 15.3601 13.5205V10.4805Z" fill="white" fill-opacity="0.2"/>
<path d="M3.6001 16.3604C3.6001 15.8081 4.04781 15.3604 4.6001 15.3604H7.6401C8.19238 15.3604 8.6401 15.8081 8.6401 16.3604V19.4004C8.6401 19.9526 8.19238 20.4004 7.6401 20.4004H4.6001C4.04781 20.4004 3.6001 19.9526 3.6001 19.4004V16.3604Z" fill="white"/>
<path d="M9.48022 16.3604C9.48022 15.8081 9.92794 15.3604 10.4802 15.3604H13.5202C14.0725 15.3604 14.5202 15.8081 14.5202 16.3604V19.4004C14.5202 19.9526 14.0725 20.4004 13.5202 20.4004H10.4802C9.92794 20.4004 9.48022 19.9526 9.48022 19.4004V16.3604Z" fill="white" fill-opacity="0.6"/>
<path d="M15.3601 16.3604C15.3601 15.8081 15.8078 15.3604 16.3601 15.3604H19.4001C19.9524 15.3604 20.4001 15.8081 20.4001 16.3604V19.4004C20.4001 19.9526 19.9524 20.4004 19.4001 20.4004H16.3601C15.8078 20.4004 15.3601 19.9526 15.3601 19.4004V16.3604Z" fill="white" fill-opacity="0.2"/>
</svg>
