<svg xmlns="http://www.w3.org/2000/svg" width="24" height="24" viewBox="0 0 24 24" fill="none">
  <path d="M12 6.50003C11.1716 6.50003 10.5 5.82846 10.5 5.00003C10.5 4.1716 11.1716 3.50003 12 3.50003C12.8284 3.50003 13.5 4.1716 13.5 5.00003C13.5 5.82846 12.8284 6.50003 12 6.50003Z" fill="var(--theme-color-g300)"/>
  <path d="M12 13.5C11.1716 13.5 10.5 12.8285 10.5 12C10.5 11.1716 11.1716 10.5 12 10.5C12.8284 10.5 13.5 11.1716 13.5 12C13.5 12.8285 12.8284 13.5 12 13.5Z" fill="var(--theme-color-g300)"/>
  <path d="M10.5 19C10.5 19.8285 11.1716 20.5 12 20.5C12.8284 20.5 13.5 19.8285 13.5 19C13.5 18.1716 12.8284 17.5 12 17.5C11.1716 17.5 10.5 18.1716 10.5 19Z" fill="var(--theme-color-g300)"/>
</svg>