<svg width="32" height="32" viewBox="0 0 32 32" fill="none" xmlns="http://www.w3.org/2000/svg">
    <path fill-rule="evenodd" clip-rule="evenodd"
        d="M11.5314 7.89062H11.5037H11.5037C10.8288 7.89062 10.2828 7.89061 9.84026 7.92677C9.38415 7.96403 8.98109 8.04293 8.60741 8.23333C8.01578 8.53478 7.53478 9.01578 7.23333 9.60741C7.04293 9.98109 6.96403 10.3841 6.92677 10.8403C6.89061 11.2828 6.89062 11.8288 6.89062 12.5037V12.5037V12.5314V19.5153V19.543V19.543C6.89062 20.2179 6.89061 20.7639 6.92677 21.2064C6.96403 21.6625 7.04293 22.0656 7.23333 22.4393C7.53478 23.0309 8.01578 23.5119 8.60741 23.8133C8.98109 24.0037 9.38415 24.0826 9.84026 24.1199C10.2828 24.1561 10.8288 24.1561 11.5037 24.156H11.5314H16.1882C15.6433 23.7997 15.1575 23.3604 14.7488 22.8561H11.5314C10.8222 22.8561 10.3294 22.8555 9.94613 22.8242C9.5704 22.7935 9.35747 22.7365 9.1976 22.655C8.85058 22.4782 8.56845 22.1961 8.39164 21.8491C8.31018 21.6892 8.25315 21.4763 8.22245 21.1005C8.19113 20.7172 8.19063 20.2244 8.19063 19.5153V12.5314C8.19063 11.8222 8.19113 11.3294 8.22245 10.9461C8.25315 10.5704 8.31018 10.3575 8.39164 10.1976C8.56845 9.85058 8.85058 9.56845 9.1976 9.39164C9.35747 9.31018 9.5704 9.25315 9.94613 9.22245C10.3294 9.19113 10.8222 9.19063 11.5314 9.19063H18.5153C19.2244 9.19063 19.7172 9.19113 20.1005 9.22245C20.4763 9.25315 20.6892 9.31018 20.8491 9.39164C21.1961 9.56845 21.4782 9.85058 21.655 10.1976C21.7365 10.3575 21.7935 10.5704 21.8242 10.9461C21.8555 11.3294 21.8561 11.8222 21.8561 12.5314V13.1198C22.3187 13.2998 22.7546 13.5334 23.156 13.813V12.5314V12.5037C23.1561 11.8288 23.1561 11.2828 23.1199 10.8403C23.0826 10.3841 23.0037 9.98109 22.8133 9.60741C22.5119 9.01578 22.0309 8.53478 21.4393 8.23333C21.0656 8.04293 20.6625 7.96403 20.2064 7.92677C19.7639 7.89061 19.2179 7.89062 18.543 7.89062H18.543H18.5153H11.5314ZM13.98 16.2206C14.0511 15.9965 13.9979 15.7414 13.8201 15.5637L11.3259 13.0695C11.0721 12.8156 10.6605 12.8156 10.4067 13.0695C10.1528 13.3233 10.1528 13.7349 10.4067 13.9887L12.4413 16.0233L10.4067 18.058C10.1528 18.3118 10.1528 18.7234 10.4067 18.9772C10.6605 19.231 11.0721 19.231 11.3259 18.9772L13.8201 16.483C13.8545 16.4486 13.8841 16.4114 13.9092 16.3721C13.9321 16.3212 13.9557 16.2707 13.98 16.2206Z"
        fill="var(--theme-color-g400)" />
    <path
        d="M25.0004 24.3363L23.0605 22.3964M24.4461 19.0707C24.4461 21.6727 22.3368 23.782 19.7348 23.782C17.1328 23.782 15.0234 21.6727 15.0234 19.0707C15.0234 16.4687 17.1328 14.3594 19.7348 14.3594C22.3368 14.3594 24.4461 16.4687 24.4461 19.0707Z"
        stroke="var(--theme-color-g400)" stroke-width="1.3" stroke-linecap="round" stroke-linejoin="round" />
</svg>