<svg xmlns="http://www.w3.org/2000/svg" width="24" height="24" viewBox="0 0 24 24" fill="none">
  <path fill-rule="evenodd" clip-rule="evenodd" d="M8 6.65003V12.25C8 14.4592 9.79086 16.25 12 16.25C14.2091 16.25 16 14.4592 16 12.25V12.05H12.8C12.4686 12.05 12.2 11.7814 12.2 11.45C12.2 11.1187 12.4686 10.85 12.8 10.85H16V8.05003H12.8C12.4686 8.05003 12.2 7.7814 12.2 7.45003C12.2 7.11866 12.4686 6.85003 12.8 6.85003H16V6.65003C16 4.44089 14.2091 2.65003 12 2.65003C9.79086 2.65003 8 4.44089 8 6.65003ZM5.6 10.0507C5.93137 10.0507 6.2 10.3193 6.2 10.6507V12.2507C6.2 15.4539 8.79675 18.0507 12 18.0507C15.2033 18.0507 17.8 15.4539 17.8 12.2507V10.6507C17.8 10.3193 18.0686 10.0507 18.4 10.0507C18.7314 10.0507 19 10.3193 19 10.6507V12.2507C19 15.8394 16.2994 18.7974 12.8196 19.2032V20.5276C12.8196 20.9846 12.4492 21.355 11.9922 21.355C11.5352 21.355 11.1648 20.9846 11.1648 20.5276V19.2013C7.69252 18.7885 5 15.834 5 12.2507V10.6507C5 10.3193 5.26863 10.0507 5.6 10.0507Z" fill="var(--theme-color-g300)"/>
</svg>