<svg
  width="27"
  height="28"
  viewBox="0 0 27 28"
  fill="none"
  xmlns="http://www.w3.org/2000/svg"
>
<g transform="scale(0.5) translate(-10,0)">
  <path
    d="M32 12C27.0294 12 22.5 16.5294 22.5 21.5V23.5C20.0147 23.5 18 25.5147 18 28V42.5C18 46.6421 21.3579 50 25.5 50H38.5C42.6421 50 46 46.6421 46 42.5V28C46 25.5147 43.9853 23.5 41.5 23.5V21.5C41.5 16.5294 36.9706 12 32 12ZM24 21.5C24 17.9101 27.4101 14.5 31 14.5C34.5899 14.5 38 17.9101 38 21.5V23.5H24V21.5ZM20.5 28C21.3284 28 22 28.6716 22 29.5V42.5C22 45.2614 24.2386 47.5 27 47.5H37C39.7614 47.5 42 45.2614 42 42.5V29.5C42 28.6716 42.6716 28 43.5 28H20.5Z"
    fill="#333"
  />
  <circle cx="45" cy="43" r="12" fill="#F0F0F0" />
  <circle cx="45" cy="43" r="10" fill="#333" />
  <path
    d="M45 38C44.4477 38 44 38.4477 44 39V42H41C40.4477 42 40 42.4477 40 43C40 43.5523 40.4477 44 41 44H44V47C44 47.5523 44.4477 48 45 48C45.5523 48 46 47.5523 46 47V44H49C49.5523 44 50 43.5523 50 43C50 42.4477 49.5523 42 49 42H46V39C46 38.4477 45.5523 38 45 38Z"
    fill="white"
  />
</g>
</svg>
