<svg width="22" height="20" viewBox="-2 0 26 24" fill="none" xmlns="http://www.w3.org/2000/svg">
<path d="M11 9C11 7.6 11 2.9 10.659 2.365C10.359 1.895 9.882 1.512 9.294 1.272C8.625 1 7.75 1 6 1C4.25 1 3.375 1 2.706 1.272C2.118 1.512 1.64 1.895 1.34 2.365C1 2.9 1 3.6 1 5V17C1 18.4 1 19.1 1.34 19.635C1.64 20.105 2.118 20.487 2.706 20.727C3.375 21 4.25 21 6 21C7.75 21 8.625 21 9.294 20.727C9.881 20.487 10.359 20.105 10.659 19.635C11 19.1 11 18.4 11 17M11.152 7.306C11.305 6.939 11.593 6.65 12.172 6.072L14.314 3.93C15.304 2.94 15.799 2.445 16.369 2.26C16.8714 2.09666 17.4126 2.09666 17.915 2.26C18.485 2.445 18.981 2.94 19.971 3.93C20.961 4.92 21.456 5.415 21.641 5.985C21.8043 6.48739 21.8043 7.02861 21.641 7.531C21.456 8.101 21.49 8.01 20.5 9" stroke="var(--theme-color-g400)" stroke-width="1.3"/>
<path d="M14.6956 8.02563C15.0293 6.65812 16.9707 6.65812 17.3044 8.02563C17.3548 8.23023 17.4526 8.42011 17.5899 8.57988C17.7273 8.73966 17.9004 8.86483 18.0951 8.94528C18.2898 9.02572 18.5008 9.05917 18.7109 9.04292C18.9209 9.02667 19.1242 8.96117 19.3043 8.85173C20.5037 8.12131 21.8782 9.49581 21.1478 10.6953C21.0379 10.8756 20.9721 11.0793 20.9557 11.2898C20.9393 11.5003 20.9729 11.7117 21.0536 11.9068C21.1343 12.1019 21.2599 12.2752 21.4202 12.4126C21.5805 12.55 21.771 12.6476 21.9762 12.6975C23.3413 13.0289 23.3413 14.9705 21.9762 15.3019C21.7713 15.3522 21.5812 15.4501 21.4212 15.5876C21.2611 15.7251 21.1357 15.8983 21.0551 16.0933C20.9744 16.2882 20.9408 16.4994 20.9569 16.7098C20.973 16.9201 21.0384 17.1237 21.1478 17.3041C21.8782 18.5036 20.5037 19.8781 19.3043 19.1477C19.1242 19.0377 18.9207 18.9719 18.7103 18.9555C18.4999 18.9391 18.2887 18.9727 18.0938 19.0535C17.8988 19.1342 17.7257 19.2599 17.5886 19.4202C17.4514 19.5805 17.354 19.771 17.3044 19.9761C16.9707 21.3413 15.0293 21.3413 14.6956 19.9761C14.6455 19.7713 14.5479 19.5812 14.4107 19.4211C14.2734 19.2611 14.1004 19.1356 13.9056 19.055C13.7109 18.9743 13.4998 18.9406 13.2896 18.9567C13.0794 18.9728 12.8759 19.0383 12.6957 19.1477C11.4963 19.8781 10.1218 18.5036 10.8522 17.3041C10.9621 17.1238 11.0279 16.9202 11.0443 16.7097C11.0607 16.4991 11.0271 16.2877 10.9464 16.0926C10.8657 15.8975 10.7401 15.7242 10.5798 15.5868C10.4195 15.4494 10.229 15.3518 10.0238 15.3019C8.65872 14.9705 8.65872 13.0289 10.0238 12.6975C10.2287 12.6472 10.4188 12.5493 10.5788 12.4118C10.7389 12.2743 10.8643 12.1011 10.9449 11.9062C11.0256 11.7112 11.0592 11.5 11.0431 11.2897C11.027 11.0793 10.9616 10.8757 10.8522 10.6953C10.1218 9.49581 11.4963 8.12131 12.6957 8.85173C12.8758 8.96168 13.0793 9.02752 13.2897 9.04389C13.5001 9.06027 13.7113 9.02671 13.9062 8.94596C14.1012 8.86521 14.2743 8.73954 14.4115 8.57921C14.5486 8.41887 14.646 8.23072 14.6956 8.02563Z" stroke="var(--theme-color-g400)" stroke-width="1.3" stroke-linecap="round" stroke-linejoin="round"/>
<path d="M16 17C17.6569 17 19 15.6569 19 14C19 12.3431 17.6569 11 16 11C14.3431 11 13 12.3431 13 14C13 15.6569 14.3431 17 16 17Z" stroke="var(--theme-color-g400)" stroke-width="1.3"/>
</svg>
