<svg width="16" height="16" viewBox="0 0 16 16" fill="none" xmlns="http://www.w3.org/2000/svg">
<path d="M9.86977 2.78562C9.98548 2.83578 10.0907 2.90737 10.1798 2.99662L12.7988 5.61829C12.9135 5.73316 12.9985 5.87424 13.0465 6.02934C13.0945 6.18444 13.104 6.34888 13.0742 6.50848C13.0444 6.66807 12.9762 6.81801 12.8755 6.94533C12.7748 7.07266 12.6445 7.17355 12.4961 7.23929L11.5681 7.65029L9.8271 9.39329L9.6891 11.3106C9.67531 11.5018 9.60687 11.685 9.49193 11.8384C9.37698 11.9917 9.22038 12.1089 9.04077 12.1758C8.86115 12.2427 8.6661 12.2565 8.47882 12.2157C8.29154 12.1749 8.11994 12.0812 7.98444 11.9456L6.29377 10.2533L3.41277 13.1476L2.7041 12.442L5.58677 9.54596L3.83777 7.79562C3.70249 7.66022 3.60892 7.48884 3.56815 7.30183C3.52739 7.11482 3.54115 6.92004 3.6078 6.74062C3.67445 6.5612 3.79119 6.40468 3.94416 6.28964C4.09713 6.1746 4.2799 6.10587 4.47077 6.09162L6.44277 5.94429L8.15277 4.23229L8.55443 3.30562C8.60664 3.1851 8.68208 3.07605 8.77645 2.98469C8.87081 2.89333 8.98224 2.82145 9.10439 2.77316C9.22653 2.72487 9.35699 2.70112 9.48832 2.70326C9.61964 2.7054 9.74926 2.73338 9.86977 2.78562ZM9.4721 3.70329L8.99477 4.80429L6.8881 6.91429L4.54477 7.08862L8.69177 11.2386L8.85643 8.94996L10.9924 6.81129L12.0914 6.32462L9.4721 3.70329Z" fill="#6B7280"/>
</svg>
