<svg xmlns="http://www.w3.org/2000/svg" width="24" height="24" viewBox="0 0 24 24" fill="none">
  <path xmlns="http://www.w3.org/2000/svg" d="M9.21949 10.6273H6.40585C5.62708 10.6273 4.99902 9.99923 4.99902 9.22045V6.40682C4.99902 5.62804 5.62708 5 6.40585 5H18.21949C18.99827 5 19.6263 5.62804 19.6263 6.40682V9.22045C19.6263 9.99923 18.99827 10.6273 18.21949 10.6273Z" stroke="#9CA3AF" stroke-width="1.3" stroke-linecap="round" stroke-linejoin="round"/>
  <path d="M9.21949 19.0023H6.40585C5.62708 19.0023 4.99902 18.3742 4.99902 17.5955V14.7818C4.99902 14.003 5.62708 13.375 6.40585 13.375H9.21949C9.99827 13.375 10.6263 14.003 10.6263 14.7818V17.5955C10.6263 18.3742 9.99827 19.0023 9.21949 19.0023Z" stroke="#9CA3AF" stroke-width="1.3" stroke-linecap="round" stroke-linejoin="round"/>
  <path xmlns="http://www.w3.org/2000/svg" d="M17.5935 18.0023H14.7799C14.0011 18.0023 13.373 17.3742 13.373 16.5955V14.7818C13.373 14.003 14.0011 13.375 14.7799 13.375H19.5935C20.3723 13.375 21.0003 14.003 21.0003 14.7818V16.5955C21.0003 17.3742 20.3723 18.0023 19.5935 18.0023Z" stroke="#9CA3AF" stroke-width="1.3" stroke-linecap="round" stroke-linejoin="round"/>
</svg>