<svg width="1024" height="1024" xmlns="http://www.w3.org/2000/svg" class="icon" version="1.1" p-id="5476">
 <g>
  <title _mstHash="493" _mstTextHash="5637814">第 1 层</title>
  <g id="svg_7">
   <path d="m475.2,903.2c-16.8,0 -34.4,-1.6 -53.6,-4l-4.8,-0.8c-136,-20.8 -228.8,-152.8 -232.8,-158.4c-131.2,-200 -65.6,-402.4 58.4,-514.4c123.2,-112 328.8,-160 508.8,-15.2c116,93.6 151.2,223.2 152.8,228.8l0,1.6c16.8,91.2 3.2,158.4 -40.8,201.6c-67.2,64.8 -178.4,44 -193.6,40.8c-20.8,-2.4 -36,4 -47.2,17.6c-12,15.2 -14.4,35.2 -10.4,47.2c11.2,33.6 12.8,59.2 4.8,78.4c-23.2,50.4 -70.4,76.8 -141.6,76.8zm-51.2,-52.8l4.8,0.8c77.6,12 124.8,-3.2 144,-46.4c0,-0.8 4,-11.2 -6.4,-43.2c-10.4,-28.8 -2.4,-66.4 18.4,-92c21.6,-27.2 53.6,-39.2 91.2,-35.2l2.4,0.8c0.8,0 100,21.6 151.2,-28c31.2,-30.4 40.8,-83.2 27.2,-156.8c-3.2,-10.4 -37.6,-123.2 -136.8,-202.4c-156.8,-128 -336.8,-85.6 -445.6,12.8c-100,91.2 -173.6,264.8 -50.4,452.8c0.8,0 84.8,120 200,136.8z" fill="var(--theme-color-g400)" p-id="5477" id="svg_1"/>
   <path d="m284,526.4m-48,0a48,48 0 1 0 96,0a48,48 0 1 0 -96,0z" fill="var(--theme-color-g400)" p-id="5478" id="svg_2"/>
   <path d="m340,382.4m-48,0a48,48 0 1 0 96,0a48,48 0 1 0 -96,0z" fill="var(--theme-color-g400)" p-id="5479" id="svg_3"/>
   <path d="m484,302.4m-48,0a48,48 0 1 0 96,0a48,48 0 1 0 -96,0z" fill="var(--theme-color-g400)" p-id="5480" id="svg_4"/>
   <path d="m644,342.4m-48,0a48,48 0 1 0 96,0a48,48 0 1 0 -96,0z" fill="var(--theme-color-g400)" p-id="5481" id="svg_5"/>
   <path d="m724,470.4m-48,0a48,48 0 1 0 96,0a48,48 0 1 0 -96,0z" fill="var(--theme-color-g400)" p-id="5482" id="svg_6"/>
  </g>
 </g>

</svg>
