<svg class="icon" style="width: 24;height: 24;vertical-align: middle;fill: currentColor;" viewBox="0 0 1024 1024" version="1.1" xmlns="http://www.w3.org/2000/svg" p-id="1812">
<path d="M248.149333 170.666667c3.754667 0 8.106667 5.802667 8.106667 9.557333L256 192h512v-14.506667a6.826667 6.826667 0 0 1 6.826667-6.826666h71.68a6.826667 6.826667 0 0 1 6.826666 6.826666l-0.170666 71.68a6.826667 6.826667 0 0 1-6.826667 6.826667H832v320l-42.666667-42.666667V256l-14.464 0.298667a6.826667 6.826667 0 0 1-6.826666-6.826667L768 234.666667H256c0.170667 6.741333 0.256 11.349333 0.256 13.866666 0 3.754667-4.352 7.765333-8.106667 7.765334L234.666667 256v512l15.872-0.128c3.754667 0 5.717333 3.285333 5.717333 7.04L256 789.333333h320l42.666667 42.666667H256l-0.768 14.336a6.826667 6.826667 0 0 1-6.826667 6.826667L177.493333 853.333333a6.826667 6.826667 0 0 1-6.826666-6.826666v-71.594667a6.826667 6.826667 0 0 1 6.826666-6.826667L192 768V256l-11.818667 0.298667c-3.754667 0-9.514667-5.12-9.514666-8.917334V177.493333A6.826667 6.826667 0 0 1 177.493333 170.666667z m335.061334 298.666666l248.789333 256-89.685333 85.333334-251.648-256 92.586666-85.333334z m-5.546667 42.666667l-44.330667 41.088 37.973334 44.245333 47.36-43.733333-40.96-41.6z" fill="var(--theme-color-g400)" p-id="1813">
</path></svg>