<svg xmlns="http://www.w3.org/2000/svg" width="20" height="20" viewBox="0 0 20 20" fill="none">
  <path d="M1.5 10.7148H3.99665C4.37553 10.7148 4.73889 10.8654 5.0068 11.1333C5.27471 11.4012 5.42522 11.7645 5.42522 12.1434V17.8577C5.42522 18.2366 5.27471 18.5999 5.0068 18.8679C4.73889 19.1358 4.37553 19.2863 3.99665 19.2863H2.13951C1.76063 19.2863 1.39727 19.1358 1.12936 18.8679C0.861447 18.5999 0.710938 18.2366 0.710938 17.8577V10.0006C0.710938 7.53783 1.68925 5.17598 3.43066 3.43457C5.17207 1.69316 7.53393 0.714844 9.99665 0.714844C12.4594 0.714844 14.8212 1.69316 16.5626 3.43457C18.3041 5.17598 19.2824 7.53783 19.2824 10.0006V17.8577C19.2824 18.2366 19.1319 18.5999 18.8639 18.8679C18.596 19.1358 18.2327 19.2863 17.8538 19.2863H15.9967C15.6178 19.2863 15.2544 19.1358 14.9865 18.8679C14.7186 18.5999 14.5681 18.2366 14.5681 17.8577V12.1434C14.5681 11.7645 14.7186 11.4012 14.9865 11.1333C15.2544 10.8654 15.6178 10.7148 15.9967 10.7148C15.9967 10.7148 17.9421 10.7148 18.5 10.7148" stroke="#FAFAFA" stroke-width="1.3" stroke-linecap="round" stroke-linejoin="round"/>
</svg>