<svg xmlns="http://www.w3.org/2000/svg" xmlns:xlink="http://www.w3.org/1999/xlink" fill="none" version="1.1" width="32" height="32" viewBox="0 0 32 32">
    <defs>
        <clipPath id="master_svg0_123_35">
            <rect x="0" y="0" width="32" height="32" rx="0"/>
        </clipPath>
    </defs>
    <g>
        <g>
            <path d="M23.35,12.2667L23.35,17.7334Q23.35,17.797420000000002,23.3625,17.860210000000002Q23.375,17.923000000000002,23.3995,17.98214Q23.424,18.0413,23.4595,18.0945Q23.4951,18.1477,23.540399999999998,18.192999999999998Q23.5856,18.238300000000002,23.6389,18.273899999999998Q23.6921,18.3094,23.7513,18.3339Q23.8104,18.3584,23.8732,18.3709Q23.936,18.3834,24,18.3834Q24.064,18.3834,24.1268,18.3709Q24.1896,18.3584,24.2487,18.3339Q24.3079,18.3094,24.3611,18.273899999999998Q24.4143,18.238300000000002,24.4596,18.192999999999998Q24.5049,18.1477,24.5405,18.0945Q24.576,18.0413,24.6005,17.98214Q24.625,17.923000000000002,24.6375,17.860210000000002Q24.65,17.797420000000002,24.65,17.7334L24.65,12.2667Q24.65,9.87048,24.2886,9.16099Q23.799300000000002,8.200788,22.839100000000002,7.711511Q22.1295,7.35,19.7333,7.35L12.2667,7.35Q9.87046,7.35,9.16095,7.711489Q8.200734,8.200735,7.711494,9.16094Q7.35,9.87046,7.35,12.2667L7.35,19.7333Q7.35,22.1295,7.711482,22.839100000000002Q8.200787,23.799300000000002,9.1609,24.2885Q9.87048,24.65,12.2667,24.65L17.7334,24.65Q17.797420000000002,24.65,17.860210000000002,24.6375Q17.923000000000002,24.625,17.98214,24.6005Q18.0413,24.576,18.0945,24.5405Q18.1477,24.5049,18.192999999999998,24.4596Q18.238300000000002,24.4143,18.273899999999998,24.3611Q18.3094,24.3079,18.3339,24.2487Q18.3584,24.1896,18.3709,24.1268Q18.3834,24.064,18.3834,24Q18.3834,23.936,18.3709,23.8732Q18.3584,23.8104,18.3339,23.7513Q18.3094,23.6921,18.273899999999998,23.6389Q18.238300000000002,23.5856,18.192999999999998,23.540399999999998Q18.1477,23.4951,18.0945,23.4595Q18.0413,23.424,17.98214,23.3995Q17.923000000000002,23.375,17.860210000000002,23.3625Q17.797420000000002,23.35,17.7334,23.35L12.2667,23.35Q10.18252,23.35,9.75116,23.1303Q9.16732,22.832700000000003,8.869819,22.2489Q8.65,21.817500000000003,8.65,19.7333L8.65,12.2667Q8.65,10.18254,8.869807,9.75112Q9.16728,9.16728,9.75111,8.869812Q10.18254,8.65,12.2667,8.65L19.7333,8.65Q21.817500000000003,8.65,22.2489,8.86979Q22.832700000000003,9.16732,23.130200000000002,9.75107Q23.35,10.18252,23.35,12.2667ZM11.09597,13.79291L13.30298,16L11.09597,18.2071Q11.00455,18.2985,10.95508,18.418Q10.9056,18.537399999999998,10.9056,18.6667Q10.9056,18.7307,10.91809,18.7935Q10.930579999999999,18.856299999999997,10.95508,18.915399999999998Q10.97958,18.974600000000002,11.01514,19.0278Q11.05071,19.081,11.09598,19.1263Q11.14125,19.171599999999998,11.19448,19.2072Q11.24771,19.2427,11.30686,19.267200000000003Q11.366,19.2917,11.42879,19.3042Q11.491579999999999,19.3167,11.5556,19.3167Q11.684899999999999,19.3167,11.80435,19.267200000000003Q11.9238,19.2177,12.015229999999999,19.1263L14.68183,16.459609999999998Q14.7271,16.41434,14.76266,16.36111Q14.79823,16.30788,14.82272,16.248739999999998Q14.84722,16.189590000000003,14.85971,16.12681Q14.8722,16.06402,14.8722,16Q14.8722,15.93598,14.85971,15.873190000000001Q14.84722,15.810410000000001,14.82272,15.75126Q14.79823,15.69212,14.76266,15.63889Q14.7271,15.58566,14.68183,15.54039L12.015229999999999,12.87369Q11.9238,12.78226,11.80435,12.73278Q11.684899999999999,12.6833,11.5556,12.6833Q11.491579999999999,12.6833,11.42879,12.695789999999999Q11.366,12.70828,11.30686,12.73278Q11.24771,12.75728,11.19448,12.79284Q11.14125,12.82841,11.09598,12.87368Q11.05071,12.918949999999999,11.01514,12.97218Q10.97958,13.02541,10.95508,13.08456Q10.930579999999999,13.143699999999999,10.91809,13.206489999999999Q10.9056,13.26928,10.9056,13.333300000000001Q10.9056,13.462589999999999,10.95508,13.58204Q11.00455,13.70149,11.09597,13.79291ZM16.8889,18.0167L20.4444,18.0167Q20.5084,18.0167,20.571199999999997,18.0292Q20.634,18.0417,20.6931,18.066200000000002Q20.752299999999998,18.0907,20.805500000000002,18.1262Q20.858800000000002,18.1618,20.904,18.2071Q20.9493,18.252299999999998,20.9849,18.3056Q21.020400000000002,18.358800000000002,21.0449,18.418Q21.0694,18.4771,21.081899999999997,18.5399Q21.0944,18.6027,21.0944,18.6667Q21.0944,18.7307,21.081899999999997,18.7935Q21.0694,18.856299999999997,21.0449,18.915399999999998Q21.020400000000002,18.974600000000002,20.9849,19.0278Q20.9493,19.081,20.904,19.1263Q20.858800000000002,19.171599999999998,20.805500000000002,19.2072Q20.752299999999998,19.2427,20.6931,19.267200000000003Q20.634,19.2917,20.571199999999997,19.3042Q20.5084,19.3167,20.4444,19.3167L16.8889,19.3167Q16.82488,19.3167,16.76209,19.3042Q16.6993,19.2917,16.64016,19.267200000000003Q16.58101,19.2427,16.52778,19.2072Q16.47455,19.171599999999998,16.42928,19.1263Q16.38401,19.081,16.34844,19.0278Q16.31288,18.974600000000002,16.28838,18.915399999999998Q16.26388,18.856299999999997,16.25139,18.7935Q16.2389,18.7307,16.2389,18.6667Q16.2389,18.6027,16.25139,18.5399Q16.26388,18.4771,16.28838,18.418Q16.31288,18.358800000000002,16.34844,18.3056Q16.38401,18.252299999999998,16.42928,18.2071Q16.47455,18.1618,16.52778,18.1262Q16.58101,18.0907,16.64016,18.066200000000002Q16.6993,18.0417,16.76209,18.0292Q16.82488,18.0167,16.8889,18.0167Z" fill-rule="evenodd" fill="var(--theme-color-g400)" fill-opacity="1"/>
        </g>
        <g>
            <path d="M22.09804,18.963833L22.0979,18.963993Q22.00837,19.068550000000002,21.88118,19.12122Q21.75404,19.1739,21.61677,19.16321Q21.47952,19.15253,21.3615,19.08048Q20.24819,18.402493,19.32555,19.32516Q18.402927,20.247799999999998,19.08035,21.36029Q19.15197,21.47839,19.16251,21.6161Q19.17305,21.75381,19.12021,21.8815Q19.06749,22.008969999999998,18.962633,22.09903Q18.857935,22.189,18.725387,22.22154Q17.458334,22.52915,17.458334,23.83309Q17.458334,25.13703,18.725182,25.444580000000002Q18.859302,25.47719,18.963997,25.56693Q19.06873,25.65671,19.12147,25.78421Q19.17427,25.91185,19.16356,26.04934Q19.15284,26.18695,19.08086,26.305039999999998Q18.40293,27.41838,19.32555,28.341Q20.24819,29.2637,21.36086,28.586100000000002Q21.47877,28.514499999999998,21.616039999999998,28.503999999999998Q21.75337,28.493499999999997,21.88092,28.5464Q22.00798,28.5989,22.09762,28.703400000000002Q22.18742,28.8082,22.22017,28.942Q22.529690000000002,30.2083,23.83334,30.2083Q25.13699,30.2083,25.44683,28.9407Q25.47918,28.807000000000002,25.56882,28.702199999999998Q25.65826,28.5977,25.78562,28.545Q25.91272,28.4923,26.04983,28.5029Q26.1872,28.5137,26.30519,28.5857Q27.4185,29.2637,28.3411,28.341Q29.2638,27.41837,28.5863,26.305880000000002Q28.514699999999998,26.18779,28.5042,26.050179999999997Q28.4936,25.91238,28.5465,25.78466Q28.5992,25.65719,28.7041,25.567149999999998Q28.8087,25.47717,28.9413,25.44463Q30.208399999999997,25.13703,30.208399999999997,23.83309Q30.208399999999997,22.529139999999998,28.941499999999998,22.22159Q28.8074,22.18898,28.7027,22.09924Q28.598,22.00947,28.5452,21.88197Q28.4924,21.75432,28.5031,21.61691Q28.5139,21.4792,28.5858,21.36113Q29.2638,20.247799999999998,28.3411,19.32516Q27.41849,18.402493,26.30563,19.08021Q26.18788,19.15176,26.05066,19.16238Q25.91331,19.173000000000002,25.78611,19.12046Q25.65877,19.06784,25.56907,18.963532999999998Q25.47927,18.859033,25.44657,18.726284Q25.13716,17.458333,23.83334,17.458333Q22.529519999999998,17.458333,22.21985,18.727366Q22.18818,18.85835,22.09804,18.963833ZM22.29584,20.12205Q22.66279,19.9701,22.92114,19.66819L22.92128,19.66803Q23.18014,19.36529,23.27283,18.982022Q23.38029,18.541667,23.83334,18.541667Q24.2864,18.541667,24.39412,18.983103Q24.4892,19.3691,24.74744,19.66961Q25.00601,19.97029,25.372410000000002,20.12168Q25.73882,20.27307,26.1342,20.24249Q26.52938,20.21191,26.86822,20.00601Q27.25462,19.7707,27.57509,20.09118Q27.89559,20.41168,27.66053,20.7977Q27.45392,21.13667,27.42306,21.53276Q27.39221,21.92874,27.54414,22.296039999999998Q27.69601,22.66321,27.99766,22.921770000000002Q28.299300000000002,23.180329999999998,28.685499999999998,23.274250000000002Q29.125,23.38095,29.125,23.83309Q29.125,24.28523,28.6857,24.39187Q28.299,24.4868,27.997970000000002,24.74553Q27.696939999999998,25.00406,27.54533,25.37084Q27.393720000000002,25.737009999999998,27.424,26.13283Q27.45429,26.52838,27.66002,26.86763Q27.89559,27.25449,27.57509,27.575Q27.25461,27.895490000000002,26.86866,27.66045Q26.530279999999998,27.453780000000002,26.13402,27.422890000000002Q25.73787,27.39201,25.370739999999998,27.54421Q25.00388,27.69604,24.74553,27.9981Q24.48726,28.2999,24.39385,28.6861Q24.28657,29.125,23.83334,29.125Q23.380119999999998,29.125,23.27252,28.6848Q23.17828,28.299599999999998,22.92023,27.99845Q22.661459999999998,27.6969,22.295099999999998,27.54532Q21.9289,27.39354,21.53331,27.423830000000002Q21.13788,27.45412,20.798659999999998,27.660069999999997Q20.41207,27.895490000000002,20.09159,27.575Q19.77109,27.25449,20.006149999999998,26.868470000000002Q20.21277,26.5295,20.24362,26.133490000000002Q20.27447,25.73741,20.12255,25.37013Q19.97068,25.00297,19.66902,24.7444Q19.36736,24.48584,18.981168,24.39192Q18.541667,24.28523,18.541667,23.83309Q18.541667,23.38094,18.980964,23.2743Q19.36766,23.17937,19.66872,22.92064Q19.96968,22.66217,20.12131,22.2955Q20.27297,21.92905,20.24268,21.53341Q20.21241,21.13782,20.00667,20.79855Q19.77109,20.41168,20.09159,20.09118Q20.41207,19.7707,20.79802,20.00574Q21.13663,20.21246,21.53274,20.24328Q21.92882,20.27411,22.29584,20.12205Z" fill-rule="evenodd" fill="var(--theme-color-g400)" fill-opacity="1"/>
        </g>
        <g>
            <path d="M21.683187375,21.683186375Q20.792317375,22.574054375,20.792317375,23.833984375Q20.792317375,25.093914375,21.683187375,25.984784375Q22.574054375,26.875654375,23.833984375,26.875654375Q25.093914375,26.875654375,25.984784375,25.984784375Q26.875654375,25.093914375,26.875654375,23.833984375Q26.875654375,22.574054375,25.984784375,21.683186375Q25.093914375,20.792317375,23.833984375,20.792317375Q22.574054375,20.792317375,21.683187375,21.683186375ZM22.449224375,25.218744375Q21.875651375,24.645184375,21.875651375,23.833984375Q21.875651375,23.022784375,22.449224375,22.449214375Q23.022784375,21.875651375,23.833984375,21.875651375Q24.645184375,21.875651375,25.218754375,22.449214375Q25.792314375,23.022784375,25.792314375,23.833984375Q25.792314375,24.645184375,25.218754375,25.218754375Q24.645184375,25.792314375,23.833984375,25.792314375Q23.022784375,25.792314375,22.449224375,25.218744375Z" fill-rule="evenodd" fill="var(--theme-color-g400)" fill-opacity="1"/>
        </g>
    </g>
</svg>