<svg xmlns="http://www.w3.org/2000/svg" width="18" height="18" viewBox="0 0 18 18" fill="none">
  <path d="M2.92734 9.37982H4.675C4.94022 9.37982 5.19457 9.48518 5.38211 9.67271C5.56964 9.86025 5.675 10.1146 5.675 10.3798V14.3798C5.675 14.645 5.56964 14.8994 5.38211 15.0869C5.19457 15.2745 4.94022 15.3798 4.675 15.3798H3.375C3.10978 15.3798 2.85543 15.2745 2.66789 15.0869C2.48036 14.8994 2.375 14.645 2.375 14.3798V8.87982C2.375 7.15591 3.05982 5.50261 4.27881 4.28363C5.49779 3.06464 7.15109 2.37982 8.875 2.37982C10.5989 2.37982 12.2522 3.06464 13.4712 4.28363C14.6902 5.50261 15.375 7.15591 15.375 8.87982V14.3798C15.375 14.645 15.2696 14.8994 15.0821 15.0869C14.8946 15.2745 14.6402 15.3798 14.375 15.3798H13.075C12.8098 15.3798 12.5554 15.2745 12.3679 15.0869C12.1804 14.8994 12.075 14.645 12.075 14.3798V10.3798C12.075 10.1146 12.1804 9.86025 12.3679 9.67271C12.5554 9.48518 12.8098 9.37982 13.075 9.37982C13.075 9.37982 14.4368 9.37982 14.8273 9.37982" stroke="#FAFAFA" stroke-width="1.2" stroke-linecap="round" stroke-linejoin="round"/>
</svg>