<svg class="icon" style="width: 18px;height: 18px;vertical-align: middle;fill: currentColor;overflow: hidden;" viewBox="0 0 1024 1024" version="1.1" xmlns="http://www.w3.org/2000/svg" p-id="2796"><path d="M896 128v768H128V128h768m32-64h-832a32 32 0 0 0-32 32v832a32 32 0 0 0 32 32h832a32 32 0 0 0 32-32v-832a32 32 0 0 0-32-32zM96 64h384a32 32 0 0 1 32 32V512H96a32 32 0 0 1-32-32v-384a32 32 0 0 1 32-32zM512 512h416a32 32 0 0 1 32 32v384a32 32 0 0 1-32 32h-384a32 32 0 0 1-32-32V512z" p-id="2797"></path></svg>