<svg class="icon" fill="var(--theme-color-g400)" viewBox="0 0 1024 1024" version="1.1" width="22" height="22" xmlns="http://www.w3.org/2000/svg" p-id="605">
<path d="M83.2 571.733333zM81.066667 573.866667c2.133333-2.133333 2.133333-2.133333 0 0 2.133333-2.133333 0-2.133333 0 0zM91.733333 569.6zM89.6 569.6zM87.466667 569.6zM87.466667 569.6s-2.133333 0-2.133334 2.133333c0 0 0-2.133333 2.133334-2.133333z">
</path>
<path d="M494.933333 1000.533333c-66.133333 0-166.4-64-294.4-187.733333C74.666667 697.6 85.333333 541.866667 87.466667 522.666667V196.266667c0-14.933333 10.666667-29.866667 27.733333-29.866667 230.4-10.666667 366.933333-136.533333 369.066667-138.666667 4.266667-4.266667 14.933333-6.4 23.466666-6.4s14.933333 6.4 21.333334 10.666667c61.866667 89.6 283.733333 132.266667 362.666666 140.8 14.933333 2.133333 25.6 12.8 25.6 29.866667v332.8c0 59.733333-14.933333 177.066667-123.733333 290.133333-125.866667 130.133333-236.8 174.933333-298.666667 174.933333zM145.066667 224v305.066667c0 6.4-14.933333 140.8 93.866666 245.333333 162.133333 153.6 230.4 170.666667 253.866667 170.666667 51.2 0 149.333333-49.066667 253.866667-157.866667 93.866667-96 108.8-196.266667 108.8-249.6V230.4c-70.4-10.666667-268.8-49.066667-358.4-138.666667-46.933333 36.266667-168.533333 115.2-352 132.266667z m0 0">
</path>
<path d="M716.8 398.933333L452.266667 667.733333c-12.8 12.8-32 12.8-44.8 0l-117.333334-115.2c-10.666667-10.666667-12.8-29.866667-6.4-42.666666 10.666667-14.933333 36.266667-17.066667 49.066667-6.4l85.333333 83.2c8.533333 8.533333 14.933333 8.533333 21.333334 0l230.4-232.533334c10.666667-10.666667 29.866667-14.933333 42.666666-6.4 14.933333 14.933333 17.066667 36.266667 4.266667 51.2z m0 0">
</path>
</svg>