<svg xmlns="http://www.w3.org/2000/svg" width="14" height="17" viewBox="0 0 14 17" fill="none">
  <path fill-rule="evenodd" clip-rule="evenodd" d="M3.65 1.5C3.65 1.14101 3.35898 0.85 3 0.85C2.64101 0.85 2.35 1.14101 2.35 1.5V8.4303C1.2007 8.72011 0.35 9.76071 0.35 11C0.35 12.2393 1.2007 13.2799 2.35 13.5697V15.5C2.35 15.859 2.64101 16.15 3 16.15C3.35898 16.15 3.65 15.859 3.65 15.5V13.5697C4.7993 13.2799 5.65 12.2393 5.65 11C5.65 9.76071 4.7993 8.72011 3.65 8.4303V1.5ZM4.35 11C4.35 11.7456 3.74558 12.35 3 12.35C2.25442 12.35 1.65 11.7456 1.65 11C1.65 10.2544 2.25442 9.65 3 9.65C3.74558 9.65 4.35 10.2544 4.35 11ZM9.65 6C9.65 6.74558 10.2544 7.35 11 7.35C11.7456 7.35 12.35 6.74558 12.35 6C12.35 5.25442 11.7456 4.65 11 4.65C10.2544 4.65 9.65 5.25442 9.65 6ZM10.35 3.4303C9.2007 3.72011 8.35 4.76071 8.35 6C8.35 7.23929 9.2007 8.27989 10.35 8.5697V15.5C10.35 15.859 10.641 16.15 11 16.15C11.359 16.15 11.65 15.859 11.65 15.5V8.5697C12.7993 8.27989 13.65 7.23929 13.65 6C13.65 4.76071 12.7993 3.72011 11.65 3.4303V1.5C11.65 1.14101 11.359 0.85 11 0.85C10.641 0.85 10.35 1.14101 10.35 1.5V3.4303Z" fill="white"/>
</svg>