<svg t="1714115810754" class="icon" viewBox="0 0 1024 1024" version="1.1" xmlns="http://www.w3.org/2000/svg" p-id="10858" width="22" height="22"><path d="M420.693333 233.813333c2.133333 0.426667 3.84 0.853333 5.973334 0.853334 5.546667 0 11.093333-2.133333 14.933333-6.4 5.546667-5.12 7.68-13.226667 5.546667-20.906667l-17.066667-58.026667 17.066667-58.026666a21.333333 21.333333 0 0 0-5.546667-20.906667 21.077333 21.077333 0 0 0-20.906667-5.546667l-58.026666 17.066667-58.026667-17.066667a21.333333 21.333333 0 0 0-20.906667 5.546667c-5.546667 5.12-7.68 13.226667-5.546666 20.906667l17.066666 58.026666-17.066666 58.026667c-2.133333 7.68 0 15.36 5.546666 20.906667 5.12 5.546667 13.226667 7.68 20.906667 5.546666l58.026667-17.066666 58.026666 17.066666z m-52.053333-59.733333c-2.133333-0.426667-3.84-0.853333-5.973333-0.853333-2.133333 0-3.84 0.426667-5.973334 0.853333l-26.453333 7.68 7.68-26.453333c1.28-3.84 1.28-8.106667 0-11.946667l-7.68-26.453333 26.453333 7.68c3.84 1.28 8.106667 1.28 11.946667 0l26.453333-7.68-7.68 26.453333c-1.28 3.84-1.28 8.106667 0 11.946667l7.68 26.453333-26.453333-7.68zM126.72 897.28c23.893333 23.893333 55.04 35.84 86.613333 35.84 31.573333 0 62.72-11.946667 86.613334-35.84L790.528 406.698667a48.64 48.64 0 0 0 0.981333-0.981334L854.613333 342.613333c23.04-23.04 35.84-53.76 35.84-86.613333 0-32.853333-12.8-63.573333-35.84-86.613333a122.581333 122.581333 0 0 0-173.226666 0l-554.666667 554.666666c-23.04 23.04-35.84 53.76-35.84 86.613334 0 32.853333 12.8 63.573333 35.84 86.613333z m641.706667-558.933333l-82.773334-82.773334 40.96-40.96c11.52-11.52 26.453333-17.066667 41.386667-17.066666A58.112 58.112 0 0 1 826.453333 256c0 15.786667-5.973333 30.293333-17.066666 41.386667l-40.96 40.96z m-128-37.546667l82.773333 82.773333L254.72 852.053333c-22.613333 22.613333-60.16 22.613333-82.773333 0-11.093333-11.093333-17.066667-25.6-17.066667-41.386666s5.973333-30.293333 17.066667-41.386667L640.426667 300.8zM256 490.666667c-2.133333 0-3.84-0.426667-5.973333-0.853334l-58.026667-17.066666-58.026667 17.066666c-7.68 2.133333-15.36 0-20.906666-5.546666s-7.68-13.653333-5.546667-20.906667l17.066667-58.026667-17.066667-58.026666c-2.133333-7.68 0-15.786667 5.546667-20.906667s13.653333-7.68 20.906666-5.546667l58.026667 17.066667 58.026667-17.066667a21.333333 21.333333 0 0 1 20.906666 5.546667c5.546667 5.546667 7.68 13.653333 5.546667 20.906667l-17.066667 58.026666 17.066667 58.026667c2.133333 7.68 0 15.786667-5.546667 20.906667a20.053333 20.053333 0 0 1-14.933333 6.4z m-64-61.44c2.133333 0 3.84 0.426667 5.973333 0.853333l26.453334 7.68-7.68-26.453333a19.072 19.072 0 0 1 0-11.946667l7.68-26.453333-26.453334 7.68c-3.84 1.28-8.106667 1.28-11.946666 0l-26.453334-7.68 7.68 26.453333c1.28 3.84 1.28 8.106667 0 11.946667l-7.68 26.453333 26.453334-7.68c2.133333-0.426667 3.84-0.853333 5.973333-0.853333z m698.026667 273.92c2.133333 0.426667 3.84 0.853333 5.973333 0.853333 5.546667 0 11.093333-2.133333 14.933333-6.4 5.546667-5.12 7.68-13.226667 5.546667-20.906667l-17.066667-58.026666 17.066667-58.026667a21.333333 21.333333 0 0 0-5.546667-20.906667 21.333333 21.333333 0 0 0-20.906666-5.546666l-58.026667 17.066666-58.026667-17.066666a22.314667 22.314667 0 0 0-20.906666 5.546666c-5.546667 5.12-7.68 13.226667-5.546667 20.906667l17.066667 58.026667-17.066667 58.026666a21.333333 21.333333 0 0 0 5.546667 20.906667c5.546667 5.546667 13.226667 7.68 20.906666 5.546667l58.026667-17.066667 58.026667 17.066667z m-52.053334-59.733334c-2.133333-0.426667-3.84-0.853333-5.973333-0.853333-2.133333 0-3.84 0.426667-5.973333 0.853333l-26.453334 7.68 7.68-26.453333c1.28-3.84 1.28-8.106667 0-11.946667l-7.68-26.453333 26.453334 7.68c3.84 1.28 8.106667 1.28 11.946666 0l26.453334-7.68-7.68 26.453333c-1.28 3.84-1.28 8.106667 0 11.946667l7.68 26.453333-26.453334-7.68z" p-id="10859" fill="var(--theme-color-g400)"></path></svg>