<svg xmlns="http://www.w3.org/2000/svg" width="32" height="32" viewBox="0 0 32 32"><path fill="var(--theme-color-g400)" d="M7.22 19.385q-.585 0-1.037-.383q-.454-.382-.554-.965l-1.287-7.702q-.063-.38.172-.665t.622-.286h13.728q.388 0 .622.286q.235.286.172.664l-1.287 7.702q-.1.584-.553.966q-.454.383-1.037.383zm-1.82-9l1.198 7.48q.039.231.202.376q.164.144.394.144h9.612q.23 0 .394-.145q.164-.144.202-.374l1.198-7.481zm4.6 3.5h4q.213 0 .356-.144q.144-.144.144-.357t-.144-.356t-.356-.144h-4q-.213 0-.356.145t-.144.356t.144.356t.356.143M6 8q-.213 0-.356-.144T5.5 7.499t.144-.356T6 7h12q.213 0 .356.144t.144.357t-.144.356T18 8zm2-2.384q-.213 0-.356-.144T7.5 5.115t.144-.356q.143-.144.356-.144h8q.213 0 .356.144t.144.357t-.144.356t-.356.144zM6.598 18.385h10.804z"></path></svg>