<svg width="16" height="16" viewBox="0 0 16 16" fill="none" xmlns="http://www.w3.org/2000/svg">
    <path fill-rule="evenodd" clip-rule="evenodd"
        d="M7.74204 1.3374C4.20317 1.3374 1.33435 4.14286 1.33435 7.60358C1.33435 11.0643 4.20317 13.8698 7.74204 13.8698C9.25606 13.8698 10.6474 13.3563 11.744 12.4976L13.8264 14.5287L13.8818 14.5754C14.0752 14.7153 14.3493 14.6994 14.5243 14.5279C14.7167 14.3391 14.7163 14.0336 14.5233 13.8454L12.4653 11.838C13.5113 10.7228 14.1497 9.23612 14.1497 7.60358C14.1497 4.14286 11.2809 1.3374 7.74204 1.3374ZM7.74207 2.30094C10.7359 2.30094 13.1628 4.67429 13.1628 7.60196C13.1628 10.5296 10.7359 12.903 7.74207 12.903C4.74828 12.903 2.32133 10.5296 2.32133 7.60196C2.32133 4.67429 4.74828 2.30094 7.74207 2.30094Z"
        fill="var(--theme-color-g400)" />
</svg>