<svg width="24" height="24" viewBox="0 0 24 24" fill="none" xmlns="http://www.w3.org/2000/svg">
<path d="M12.6432 13.803L10.1937 11.3523M14.2846 5.22538V4M17.501 6.50031L18.367 5.63384M17.501 12.9861L18.367 13.8526M11.0186 6.50031L10.1526 5.63384M18.7753 9.71843H20M7.03501 19.4141L14.5771 11.868C14.9005 11.5445 15.0621 11.3828 15.1227 11.1963C15.176 11.0322 15.176 10.8554 15.1227 10.6914C15.0621 10.5048 14.9005 10.3431 14.5771 10.0196L13.9752 9.41729C13.6518 9.09378 13.4901 8.93202 13.3037 8.87142C13.1397 8.81811 12.9631 8.81811 12.7991 8.87142C12.6127 8.93202 12.451 9.09378 12.1277 9.41729L4.58555 16.9634C4.26221 17.2869 4.10054 17.4487 4.03996 17.6352C3.98668 17.7993 3.98668 17.976 4.03996 18.1401C4.10054 18.3266 4.26221 18.4883 4.58555 18.8119L5.18751 19.4141C5.51085 19.7377 5.67253 19.8994 5.85895 19.96C6.02294 20.0133 6.19958 20.0133 6.36357 19.96C6.55 19.8994 6.71167 19.7377 7.03501 19.4141Z" stroke="var(--theme-color-g400)" stroke-width="1.3" stroke-linecap="round" stroke-linejoin="round"/>
</svg>
