<svg width="16" height="16" viewBox="0 0 16 16" fill="none" xmlns="http://www.w3.org/2000/svg">
    <path
        d="M3.7873 6.05318C2.59577 5.5567 2 5.30847 2 5C2 4.69153 2.59577 4.4433 3.7873 3.94682L5.47238 3.24471C6.66391 2.74824 7.25968 2.5 8 2.5C8.74032 2.5 9.33609 2.74824 10.5276 3.24471L12.2127 3.94682C13.4042 4.4433 14 4.69153 14 5C14 5.30847 13.4042 5.5567 12.2127 6.05318L10.5276 6.75529C9.33609 7.25176 8.74032 7.5 8 7.5C7.25968 7.5 6.66391 7.25176 5.47238 6.75529L3.7873 6.05318Z"
        stroke="var(--theme-color-g500)" />
    <path
        d="M4.25968 6.5L3.7873 6.70995C2.59577 7.23952 2 7.5043 2 7.83333C2 8.16237 2.59577 8.42715 3.7873 8.95672L5.47238 9.70565C6.66391 10.2352 7.25968 10.5 8 10.5C8.74032 10.5 9.33609 10.2352 10.5276 9.70565L12.2127 8.95672C13.4042 8.42715 14 8.16237 14 7.83333C14 7.5043 13.4042 7.23952 12.2127 6.70995L11.7403 6.5"
        stroke="var(--theme-color-g500)" stroke-linecap="round" />
    <path
        d="M4.25968 9.5L3.7873 9.70995C2.59577 10.2395 2 10.5043 2 10.8333C2 11.1624 2.59577 11.4272 3.7873 11.9567L5.47238 12.7056C6.66391 13.2352 7.25968 13.5 8 13.5C8.74032 13.5 9.33609 13.2352 10.5276 12.7056L12.2127 11.9567C13.4042 11.4272 14 11.1624 14 10.8333C14 10.5043 13.4042 10.2395 12.2127 9.70995L11.7403 9.5"
        stroke="var(--theme-color-g500)" stroke-linecap="round" />
</svg>