<svg xmlns="http://www.w3.org/2000/svg" width="24" height="24" viewBox="0 0 24 24" fill="none" stroke="var(--theme-color-g400)" stroke-width="2" stroke-linecap="round" stroke-linejoin="round">
  <path d="M7.556 14.667 10.222 12l-2.666-2.667m5.333 5.334h3.555M8.267 20h7.466c1.494 0 2.24 0 2.811-.29.502-.256.91-.664 1.165-1.166.291-.57.291-1.317.291-2.81v-7.467c0-1.494 0-2.24-.29-2.811a2.667 2.667 0 0 0-1.166-1.165C17.974 4 17.227 4 15.734 4h-7.467c-1.494 0-2.24 0-2.811.29-.502.256-.91.664-1.165 1.166C4 6.026 4 6.773 4 8.266v7.467c0 1.494 0 2.24.29 2.811.256.502.664.91 1.166 1.165.57.291 1.317.291 2.81.291Z"></path>
</svg>