<svg width="16" height="18" viewBox="0 0 16 18" fill="none" xmlns="http://www.w3.org/2000/svg">
<path d="M9.75006 0.999852V4.60152C9.75006 5.08986 9.75006 5.33403 9.84543 5.52056C9.92932 5.68463 10.0632 5.81802 10.2278 5.90162C10.415 5.99665 10.66 5.99665 11.15 5.99665H14.7642M11.5 9.38755H4.50013M11.5 12.8754H4.50013M6.25011 5.89971H4.50013M9.75006 0.764832H5.20012C3.73001 0.764832 2.99495 0.764832 2.43344 1.04995C1.93952 1.30074 1.53795 1.70092 1.28629 2.19313C1.00018 2.75269 1.00018 3.48521 1.00018 4.95024V13.0498C1.00018 14.5148 1.00018 15.2473 1.28629 15.8069C1.53795 16.2991 1.93952 16.6993 2.43344 16.9501C2.99495 17.2352 3.73001 17.2352 5.20012 17.2352H10.8C12.2702 17.2352 13.0052 17.2352 13.5667 16.9501C14.0607 16.6993 14.4622 16.2991 14.7139 15.8069C15 15.2473 15 14.5148 15 13.0498V5.99659L9.75006 0.764832Z" stroke="var(--theme-color-g400)" stroke-width="1.3" stroke-linecap="round" stroke-linejoin="round"/>
</svg>