<svg xmlns="http://www.w3.org/2000/svg" xmlns:xlink="http://www.w3.org/1999/xlink" fill="none" version="1.1" width="11.333333969116211" height="11.333333015441895" viewBox="0 0 11.333333969116211 11.333333015441895"><g><path d="M5.66667,10.6667C8.46667,10.6667,10.6667,8.4,10.6667,5.66667C10.6667,2.93333,8.4,0.666667,5.66667,0.666667C2.93333,0.666667,0.666667,2.93333,0.666667,5.66667C0.666667,7.13333,1.2,7.73333,2.46667,8.13333C2.6,8.2,2.66667,8.2,2.8,8.26667C2.86667,8.26667,3.13333,8.33333,3.13333,8.4C3.93333,8.66667,4.33333,8.8,4.66667,9.2C4.93333,9.46667,5.13333,9.8,5.33333,10.1333C5.4,10.2667,5.46667,10.4,5.46667,10.4667C5.6,10.4667,5.6,10.6,5.66667,10.6667ZM5.66667,11.3333C4.73333,11.3333,5.33333,10.6667,4.26667,9.6C3.26667,8.6,0,9.2,0,5.66667C7.15256e-7,2.53333,2.53333,0,5.66667,0C8.8,0,11.3333,2.53333,11.3333,5.66667C11.3333,8.8,8.8,11.3333,5.66667,11.3333ZM6.8,9.66667C6.13333,9.66667,5.6,9.13333,5.6,8.46667C5.6,7.8,6.13333,7.33333,6.8,7.33333C7.46667,7.33333,8,7.86667,8,8.46667C8,9.06667,7.46667,9.66667,6.8,9.66667ZM6.8,9C7.06667,9,7.33333,8.8,7.33333,8.46667C7.33333,8.13333,7.13333,8,6.8,8C6.46667,8,6.26667,8.2,6.26667,8.46667C6.26667,8.73333,6.53333,9,6.8,9ZM7.33333,3.33333C6.93333,3.33333,6.66667,3.06667,6.66667,2.66667C6.66667,2.26667,6.93333,2,7.33333,2C7.73333,2,8,2.26667,8,2.66667C8,3.06667,7.73333,3.33333,7.33333,3.33333ZM5.46667,2.8C5.06667,2.8,4.8,2.53333,4.8,2.13333C4.8,1.73333,5.06667,1.46667,5.46667,1.46667C5.86667,1.46667,6.13333,1.73333,6.13333,2.13333C6.13333,2.53333,5.86667,2.8,5.46667,2.8ZM8.66667,4.66667C8.26667,4.66667,8,4.4,8,4C8,3.6,8.26667,3.33333,8.66667,3.33333C9.06667,3.33333,9.33333,3.6,9.33333,4C9.33333,4.4,9.06667,4.66667,8.66667,4.66667ZM3.66667,3.33333C3.26667,3.33333,3,3.06667,3,2.66667C3,2.26667,3.26667,2,3.66667,2C4.06667,2,4.33333,2.26667,4.33333,2.66667C4.33333,3.06667,4.06667,3.33333,3.66667,3.33333Z" fill="var(--theme-color-g400)" fill-opacity="1"/></g></svg>